<svg xmlns="http://www.w3.org/2000/svg" viewBox="0 0 558 558" width="558" height="558"><defs></defs><g transform="matrix(1,0,0,1,279,279)">
<g>
	<g>
		<path d="M-209.25000000000003,-270 C-209.25,-274.5 -213.75,-279 -218.25,-279 Q-248.78679656399999,-279 -248.78679656399999,-279 C-264.367459584,-279 -279,-264.367459584 -279,-248.78679656399999 Q-279,-248.78679656399999 -279,-218.25000000000006 C-279,-213.75000000000006 -274.5,-209.25000000000006 -270,-209.25000000000003 L-270,-209.25000000000003 C-265.5,-209.25 -261,-213.75 -261,-218.25 Q-261,-248.78679656399999 -261,-248.78679656399999 C-261,-254.408171088 -254.408171088,-261 -248.78679656399999,-261 Q-248.78679656399999,-261 -218.25000000000006,-261 C-213.75000000000006,-261 -209.25000000000006,-265.5 -209.25000000000003,-270 L-209.25000000000003,-270 ZM218.25000000000003,-279 C213.75000000000003,-279 209.25000000000003,-274.5 209.25,-270 L209.25,-270 C209.25,-265.5 213.75,-261 218.25,-261 Q248.78679656399999,-261 248.78679656399999,-261 C254.408171088,-261 261,-254.408171088 261,-248.78679656399999 Q261,-248.78679656399999 261,-218.25000000000006 C261,-213.75000000000006 265.5,-209.25000000000006 270,-209.25000000000003 L270,-209.25000000000003 C274.5,-209.25 279,-213.75 279,-218.25 Q279,-248.78679656399999 279,-248.78679656399999 C279,-264.367459584 264.367459584,-279 248.78679656399999,-279 Q248.78679656399999,-279 218.25000000000003,-279 ZM279,218.25000000000003 C279,213.75000000000003 274.5,209.25000000000003 270,209.25 L270,209.25 C265.5,209.25 261,213.75 261,218.25 Q261,248.78679656399999 261,248.78679656399999 C261,254.408171088 254.408171088,261 248.78679656399999,261 Q248.78679656399999,261 218.25000000000006,261 C213.75000000000006,261 209.25000000000006,265.5 209.25000000000003,270 L209.25000000000003,270 C209.25,274.5 213.75,279 218.25,279 Q248.78679656399999,279 248.78679656399999,279 C264.367459584,279 279,264.367459584 279,248.78679656399999 Q279,248.78679656399999 279,218.25000000000003 ZM-218.25000000000003,279 C-213.75000000000003,279 -209.25000000000003,274.5 -209.25,270 L-209.25,270 C-209.25,265.5 -213.75,261 -218.25,261 Q-248.78679656399999,261 -248.78679656399999,261 C-254.408171088,261 -261,254.408171088 -261,248.78679656399999 Q-261,248.78679656399999 -261,218.25000000000006 C-261,213.75000000000006 -265.5,209.25000000000006 -270,209.25000000000003 L-270,209.25000000000003 C-274.5,209.25 -279,213.75 -279,218.25 Q-279,248.78679656399999 -279,248.78679656399999 C-279,264.367459584 -264.367459584,279 -248.78679656399999,279 Q-248.78679656399999,279 -218.25000000000003,279 Z" fill="#edbfca"/>
	</g>
	<g>
		<path d="M-74.99999999989768,-75.00000000010232 C7.767716666954428,-75.00000000010232 75.00000000010232,-7.767716666954428 75.00000000010232,74.99999999989768 C75.00000000010232,157.76771666674978 7.767716666954428,224.99999999989768 -74.99999999989768,224.99999999989768 C-157.76771666674978,224.99999999989768 -224.99999999989768,157.76771666674978 -224.99999999989768,74.99999999989768 C-224.99999999989768,-7.767716666954428 -157.76771666674978,-75.00000000010232 -74.99999999989768,-75.00000000010232 Z" fill="#dc9fb4"/>
		<path d="M0.00010728836059570313,-150.0001072883606 C82.7678239552127,-150.0001072883606 150.0001072883606,-82.7678239552127 150.0001072883606,-0.00010728836059570313 C150.0001072883606,82.76760937849151 82.7678239552127,149.9998927116394 0.00010728836059570313,149.9998927116394 C-82.76760937849151,149.9998927116394 -149.9998927116394,82.76760937849151 -149.9998927116394,-0.00010728836059570313 C-149.9998927116394,-82.7678239552127 -82.76760937849151,-150.0001072883606 0.00010728836059570313,-150.0001072883606 Z" fill="#edbfca"/>
		<path d="M74.99999999989768,-224.99999999989768 C157.76771666674978,-224.99999999989768 224.99999999989768,-157.76771666674978 224.99999999989768,-74.99999999989768 C224.99999999989768,7.767716666954428 157.76771666674978,75.00000000010232 74.99999999989768,75.00000000010232 C-7.767716666954428,75.00000000010232 -75.00000000010232,7.767716666954428 -75.00000000010232,-74.99999999989768 C-75.00000000010232,-157.76771666674978 -7.767716666954428,-224.99999999989768 74.99999999989768,-224.99999999989768 Z" fill="#fedfe1"/>
	</g>
</g></g></svg>